<mxfile host="app.diagrams.net" modified="2024-01-11T04:09:44.710Z" agent="Mozilla/5.0 (Windows NT 10.0; Win64; x64) AppleWebKit/537.36 (KHTML, like Gecko) Chrome/120.0.0.0 Safari/537.36" etag="Z-b_bmVUZ8EwQvQx1kZ-" version="22.1.18" type="github">
  <diagram name="Page-1" id="DbH82mUIfItk7bVeHk_2">
    <mxGraphModel dx="1828" dy="2225" grid="1" gridSize="10" guides="1" tooltips="1" connect="1" arrows="1" fold="1" page="1" pageScale="1" pageWidth="850" pageHeight="1100" math="0" shadow="0">
      <root>
        <mxCell id="0" />
        <mxCell id="1" parent="0" />
        <mxCell id="mqsz3DLidRVHX6ZRNaVG-30" value="" style="endArrow=none;html=1;rounded=0;exitX=0.366;exitY=0.003;exitDx=0;exitDy=0;strokeColor=#00FF00;strokeWidth=4;exitPerimeter=0;entryX=0.998;entryY=0.786;entryDx=0;entryDy=0;entryPerimeter=0;" edge="1" parent="1" source="mqsz3DLidRVHX6ZRNaVG-16" target="mqsz3DLidRVHX6ZRNaVG-21">
          <mxGeometry width="50" height="50" relative="1" as="geometry">
            <mxPoint x="630" y="40" as="sourcePoint" />
            <mxPoint x="520" y="-20" as="targetPoint" />
            <Array as="points">
              <mxPoint x="600" y="190" />
              <mxPoint x="600" y="-20" />
            </Array>
          </mxGeometry>
        </mxCell>
        <mxCell id="mqsz3DLidRVHX6ZRNaVG-31" value="External CAN BUS" style="edgeLabel;html=1;align=center;verticalAlign=middle;resizable=0;points=[];fontStyle=1;fontSize=12;" vertex="1" connectable="0" parent="mqsz3DLidRVHX6ZRNaVG-30">
          <mxGeometry x="-0.1105" relative="1" as="geometry">
            <mxPoint x="60" y="19" as="offset" />
          </mxGeometry>
        </mxCell>
        <mxCell id="mqsz3DLidRVHX6ZRNaVG-13" value="" style="endArrow=none;html=1;rounded=0;strokeWidth=4;strokeColor=#0000ff;exitX=0.728;exitY=0.006;exitDx=0;exitDy=0;exitPerimeter=0;" edge="1" parent="1" source="mqsz3DLidRVHX6ZRNaVG-16">
          <mxGeometry width="50" height="50" relative="1" as="geometry">
            <mxPoint x="567" y="352" as="sourcePoint" />
            <mxPoint x="181" y="350" as="targetPoint" />
            <Array as="points">
              <mxPoint x="600" y="210" />
              <mxPoint x="600" y="330" />
              <mxPoint x="510" y="330" />
              <mxPoint x="510" y="370" />
              <mxPoint x="600" y="370" />
              <mxPoint x="600" y="480" />
              <mxPoint x="600" y="540" />
              <mxPoint x="510" y="540" />
              <mxPoint x="510" y="490" />
              <mxPoint x="440" y="490" />
              <mxPoint x="440" y="540" />
              <mxPoint x="376" y="540" />
              <mxPoint x="376" y="490" />
              <mxPoint x="300" y="490" />
              <mxPoint x="300" y="540" />
              <mxPoint x="233" y="540" />
              <mxPoint x="233" y="490" />
              <mxPoint x="150" y="490" />
              <mxPoint x="150" y="350" />
            </Array>
          </mxGeometry>
        </mxCell>
        <mxCell id="mqsz3DLidRVHX6ZRNaVG-14" value="CAN BUS" style="edgeLabel;html=1;align=center;verticalAlign=middle;resizable=0;points=[];fontSize=12;fontStyle=1" vertex="1" connectable="0" parent="mqsz3DLidRVHX6ZRNaVG-13">
          <mxGeometry x="-0.7631" relative="1" as="geometry">
            <mxPoint x="-187" y="220" as="offset" />
          </mxGeometry>
        </mxCell>
        <mxCell id="mqsz3DLidRVHX6ZRNaVG-1" value="" style="shape=image;html=1;verticalAlign=top;verticalLabelPosition=bottom;labelBackgroundColor=#ffffff;imageAspect=0;aspect=fixed;image=https://cdn2.iconfinder.com/data/icons/boxicons-solid-vol-1/24/bxs-car-battery-128.png" vertex="1" parent="1">
          <mxGeometry x="170" y="280" width="128" height="128" as="geometry" />
        </mxCell>
        <mxCell id="mqsz3DLidRVHX6ZRNaVG-2" value="" style="shape=image;html=1;verticalAlign=top;verticalLabelPosition=bottom;labelBackgroundColor=#ffffff;imageAspect=0;aspect=fixed;image=https://cdn2.iconfinder.com/data/icons/boxicons-solid-vol-1/24/bxs-car-battery-128.png" vertex="1" parent="1">
          <mxGeometry x="450" y="280" width="128" height="128" as="geometry" />
        </mxCell>
        <mxCell id="mqsz3DLidRVHX6ZRNaVG-3" value="" style="shape=image;html=1;verticalAlign=top;verticalLabelPosition=bottom;labelBackgroundColor=#ffffff;imageAspect=0;aspect=fixed;image=https://cdn2.iconfinder.com/data/icons/boxicons-solid-vol-1/24/bxs-car-battery-128.png" vertex="1" parent="1">
          <mxGeometry x="170" y="408" width="128" height="128" as="geometry" />
        </mxCell>
        <mxCell id="mqsz3DLidRVHX6ZRNaVG-4" value="" style="shape=image;html=1;verticalAlign=top;verticalLabelPosition=bottom;labelBackgroundColor=#ffffff;imageAspect=0;aspect=fixed;image=https://cdn2.iconfinder.com/data/icons/boxicons-solid-vol-1/24/bxs-car-battery-128.png" vertex="1" parent="1">
          <mxGeometry x="450" y="408" width="128" height="128" as="geometry" />
        </mxCell>
        <mxCell id="mqsz3DLidRVHX6ZRNaVG-5" value="" style="shape=image;html=1;verticalAlign=top;verticalLabelPosition=bottom;labelBackgroundColor=#ffffff;imageAspect=0;aspect=fixed;image=https://cdn2.iconfinder.com/data/icons/boxicons-solid-vol-1/24/bxs-car-battery-128.png" vertex="1" parent="1">
          <mxGeometry x="312" y="408" width="128" height="128" as="geometry" />
        </mxCell>
        <mxCell id="mqsz3DLidRVHX6ZRNaVG-9" value="" style="endArrow=none;html=1;rounded=0;strokeColor=#000000;strokeWidth=4;exitX=0.374;exitY=1.001;exitDx=0;exitDy=0;exitPerimeter=0;" edge="1" parent="1" source="mqsz3DLidRVHX6ZRNaVG-12">
          <mxGeometry width="50" height="50" relative="1" as="geometry">
            <mxPoint x="370" y="290" as="sourcePoint" />
            <mxPoint x="200" y="300" as="targetPoint" />
            <Array as="points">
              <mxPoint x="360" y="290" />
              <mxPoint x="480" y="290" />
              <mxPoint x="480" y="300" />
              <mxPoint x="450" y="320" />
              <mxPoint x="450" y="400" />
              <mxPoint x="482" y="430" />
              <mxPoint x="460" y="410" />
              <mxPoint x="360" y="410" />
              <mxPoint x="350" y="420" />
              <mxPoint x="340" y="430" />
              <mxPoint x="320" y="410" />
              <mxPoint x="220" y="410" />
              <mxPoint x="200" y="430" />
              <mxPoint x="170" y="400" />
              <mxPoint x="170" y="320" />
              <mxPoint x="200" y="300" />
            </Array>
          </mxGeometry>
        </mxCell>
        <mxCell id="mqsz3DLidRVHX6ZRNaVG-11" value="" style="endArrow=none;html=1;rounded=0;strokeColor=#ff0000;strokeWidth=4;exitX=0.75;exitY=1.003;exitDx=0;exitDy=0;exitPerimeter=0;" edge="1" parent="1" source="mqsz3DLidRVHX6ZRNaVG-12">
          <mxGeometry width="50" height="50" relative="1" as="geometry">
            <mxPoint x="545" y="301" as="sourcePoint" />
            <mxPoint x="266" y="301" as="targetPoint" />
            <Array as="points">
              <mxPoint x="420" y="271" />
              <mxPoint x="547" y="271" />
              <mxPoint x="547" y="301" />
              <mxPoint x="580" y="320" />
              <mxPoint x="580" y="400" />
              <mxPoint x="547" y="430" />
              <mxPoint x="510" y="400" />
              <mxPoint x="440" y="400" />
              <mxPoint x="407" y="430" />
              <mxPoint x="370" y="400" />
              <mxPoint x="300" y="400" />
              <mxPoint x="263" y="430" />
              <mxPoint x="300" y="390" />
              <mxPoint x="300" y="320" />
            </Array>
          </mxGeometry>
        </mxCell>
        <mxCell id="mqsz3DLidRVHX6ZRNaVG-12" value="Wiring Box" style="shape=cube;whiteSpace=wrap;html=1;boundedLbl=1;backgroundOutline=1;darkOpacity=0.05;darkOpacity2=0.1;" vertex="1" parent="1">
          <mxGeometry x="300" y="120" width="160" height="120" as="geometry" />
        </mxCell>
        <mxCell id="mqsz3DLidRVHX6ZRNaVG-16" value="Battery Management System" style="shape=process;whiteSpace=wrap;html=1;backgroundOutline=1;direction=south;" vertex="1" parent="1">
          <mxGeometry x="510" y="170" width="80" height="55" as="geometry" />
        </mxCell>
        <mxCell id="mqsz3DLidRVHX6ZRNaVG-17" value="48V" style="labelPosition=center;align=center;shape=mxgraph.electrical.signal_sources.voltage;shadow=0;dashed=0;strokeWidth=1;fontSize=10;html=1;direction=south;verticalLabelPosition=bottom;verticalAlign=top;" vertex="1" parent="1">
          <mxGeometry x="360" y="260" width="60" height="10" as="geometry" />
        </mxCell>
        <mxCell id="mqsz3DLidRVHX6ZRNaVG-21" value="Upper System" style="whiteSpace=wrap;html=1;aspect=fixed;" vertex="1" parent="1">
          <mxGeometry x="236" y="-240" width="280" height="280" as="geometry" />
        </mxCell>
        <mxCell id="mqsz3DLidRVHX6ZRNaVG-22" value="" style="endArrow=none;html=1;rounded=0;exitX=0.5;exitY=0;exitDx=0;exitDy=0;strokeColor=#ff0000;strokeWidth=4;" edge="1" parent="1" source="mqsz3DLidRVHX6ZRNaVG-23">
          <mxGeometry width="50" height="50" relative="1" as="geometry">
            <mxPoint x="396" y="110" as="sourcePoint" />
            <mxPoint x="406" y="40" as="targetPoint" />
          </mxGeometry>
        </mxCell>
        <mxCell id="mqsz3DLidRVHX6ZRNaVG-23" value="" style="ellipse;whiteSpace=wrap;html=1;aspect=fixed;" vertex="1" parent="1">
          <mxGeometry x="401" y="120" width="10" height="10" as="geometry" />
        </mxCell>
        <mxCell id="mqsz3DLidRVHX6ZRNaVG-25" value="" style="ellipse;whiteSpace=wrap;html=1;aspect=fixed;" vertex="1" parent="1">
          <mxGeometry x="346" y="120" width="10" height="10" as="geometry" />
        </mxCell>
        <mxCell id="mqsz3DLidRVHX6ZRNaVG-26" value="" style="endArrow=none;html=1;rounded=0;strokeColor=#000000;strokeWidth=4;" edge="1" parent="1">
          <mxGeometry width="50" height="50" relative="1" as="geometry">
            <mxPoint x="351" y="120" as="sourcePoint" />
            <mxPoint x="350.76" y="40" as="targetPoint" />
          </mxGeometry>
        </mxCell>
        <mxCell id="mqsz3DLidRVHX6ZRNaVG-27" value="This interface is used to power the system above." style="text;html=1;align=center;verticalAlign=middle;resizable=0;points=[];autosize=1;strokeColor=none;fillColor=none;horizontal=1;container=0;flipH=0;flipV=0;rotation=0;" vertex="1" parent="1">
          <mxGeometry x="71" y="90" width="290" height="30" as="geometry" />
        </mxCell>
        <mxCell id="mqsz3DLidRVHX6ZRNaVG-32" value="" style="verticalLabelPosition=bottom;shadow=0;dashed=0;align=center;html=1;verticalAlign=top;shape=mxgraph.electrical.transmission.4_line_bus;" vertex="1" parent="1">
          <mxGeometry x="460" y="185" width="50" height="25" as="geometry" />
        </mxCell>
        <mxCell id="mqsz3DLidRVHX6ZRNaVG-34" value="Unknown Box" style="rounded=0;whiteSpace=wrap;html=1;" vertex="1" parent="1">
          <mxGeometry x="498" y="50" width="60" height="30" as="geometry" />
        </mxCell>
        <mxCell id="mqsz3DLidRVHX6ZRNaVG-36" value="Power up Button" style="whiteSpace=wrap;html=1;fillColor=#a20025;fontColor=#ffffff;strokeColor=#6F0000;" vertex="1" parent="1">
          <mxGeometry x="478" y="110" width="100" height="20" as="geometry" />
        </mxCell>
        <mxCell id="mqsz3DLidRVHX6ZRNaVG-37" value="" style="endArrow=none;html=1;rounded=0;entryX=0.5;entryY=1;entryDx=0;entryDy=0;exitX=0.5;exitY=0;exitDx=0;exitDy=0;" edge="1" parent="1" source="mqsz3DLidRVHX6ZRNaVG-36" target="mqsz3DLidRVHX6ZRNaVG-34">
          <mxGeometry width="50" height="50" relative="1" as="geometry">
            <mxPoint x="190" y="210" as="sourcePoint" />
            <mxPoint x="240" y="160" as="targetPoint" />
          </mxGeometry>
        </mxCell>
        <mxCell id="mqsz3DLidRVHX6ZRNaVG-38" value="" style="endArrow=none;html=1;rounded=0;entryX=0.519;entryY=0.973;entryDx=0;entryDy=0;exitX=0;exitY=0.75;exitDx=0;exitDy=0;entryPerimeter=0;" edge="1" parent="1" source="mqsz3DLidRVHX6ZRNaVG-16" target="mqsz3DLidRVHX6ZRNaVG-36">
          <mxGeometry width="50" height="50" relative="1" as="geometry">
            <mxPoint x="100" y="240" as="sourcePoint" />
            <mxPoint x="150" y="190" as="targetPoint" />
          </mxGeometry>
        </mxCell>
      </root>
    </mxGraphModel>
  </diagram>
</mxfile>
